<?xml version="1.0" encoding="utf-8"?>
<!-- Generator: Adobe Illustrator 26.3.1, SVG Export Plug-In . SVG Version: 6.00 Build 0)  -->
<svg version="1.1" xmlns="http://www.w3.org/2000/svg" xmlns:xlink="http://www.w3.org/1999/xlink" x="0px" y="0px"
	 viewBox="0 0 264.3 172.4" style="enable-background:new 0 0 264.3 172.4;" xml:space="preserve">
<style type="text/css">
	.st0{fill:#FFFFFF;}
	.st1{fill:#E30613;}
</style>
<g id="Ebene_2">
</g>
<g id="Ebene_1">
	<g>
		<path class="st0" d="M62.6,48.6c0-0.1,0-2.9,1.1-4c0.9-0.9,3.1-1.1,3.1-1.1c0.4,0,44.2-4.9,72-4.9s71.6,4.9,72,4.9
			c0.1,0,2.2,0.2,3.1,1.1c1.1,1.1,1.1,3.9,1.1,4v16.3L263.8,48L138.9,0.2L13.8,48.6l48.8,16.7V48.6z"/>
		<path class="st0" d="M210.9,52c0-0.1,0-2.6-1-3.6c-0.9-0.8-2.9-1-3-1c-0.4,0-41.8-4.4-68.1-4.4s-67.7,4.4-68.1,4.4
			c-0.1,0-2.1,0.2-3,1c-1.1,1-1,3.5-1,3.6v62.1c0,0.1,0,2.6,1,3.6c0.9,0.8,2.9,1,3,1c0.4,0,41.8,4.4,68.1,4.4s67.7-4.4,68.1-4.4
			c0.1,0,2.1-0.2,3-1c1.1-1,1-3.5,1-3.6V52z"/>
		<path class="st1" d="M145.9,64.6c-0.1,0-0.3,0-0.8,0c-10.9,0-17.4,0-19.2,0c-0.2,0-0.3,0-0.4,0.1c-0.1,0.1-0.1,0.2-0.1,0.5
			c0,4.6,0,34.5,0,34.6c0,0.5,0.2,0.7,0.5,0.7h20c0.6,0,0.6-0.3,0.6-0.7c0-1.3,0-4.3,0-4.7c0-0.4-0.2-0.6-0.6-0.6
			c-0.5,0-13.1,0-14.3,0V84.2c1.1,0,13.3,0,13.7,0c0.4,0,0.6-0.1,0.6-0.6c0-0.2,0-1.5,0-2.6c0-1,0-2,0-2.1c0-0.4-0.2-0.6-0.6-0.6
			h-13.7v-7.7h14.3c0.2,0,0.3,0,0.4-0.1c0.1-0.1,0.1-0.2,0.1-0.5c0-0.2,0-1.3,0-2.3c0-1.1,0-2.1,0-2.4
			C146.4,64.9,146.4,64.6,145.9,64.6 M182.2,64.6c-0.2-0.9-0.4-1.3-0.7-1.4c0,0,0,0-0.1,0c-0.3,0-0.7,0.4-1.2,1.4
			c-1.2,2.4-9.9,19.8-10.8,21.7c-0.9-1.9-9.2-19.3-10.4-21.8c-0.5-0.9-0.8-1.4-1.2-1.4c0,0,0,0,0,0c-0.3,0-0.6,0.5-0.8,1.5
			c-0.4,1.8-1.2,6.3-2.3,11.6c-1.8,9.3-4.1,20.8-4.6,23.5c0,0.3,0,0.4,0.1,0.6c0.1,0.1,0.2,0.2,0.4,0.2h0c0.1,0,0.3,0,0.7,0
			c0.9,0,2.6,0,3.7,0c0.4,0,0.7,0,0.9,0c0.7,0,0.7-0.3,0.8-0.6c0,0,0-0.1,0-0.1c0-0.3,2.8-16.1,3.3-18.4c1,2,7.8,16.3,8.4,17.5
			c0.4,0.7,0.7,1,0.9,1h0c0.3,0,0.6-0.3,1-1c0.4-0.7,0.6-1,4.7-9.3c1.1-2.1,2.4-4.8,4-8.2c0.3,2.2,2.7,17.5,2.8,18.3
			c0.1,0.6,0.2,0.7,0.7,0.7h0l0.8,0c1.4,0,4.1,0,4.4,0c0.2,0,0.4,0,0.5-0.2c0.1-0.1,0.1-0.3,0.1-0.5
			C188.4,99.5,182.5,65.9,182.2,64.6 M191.6,65.1c-2.2,0-3.9,1.7-3.9,3.9c0,2.1,1.8,3.9,3.9,3.9s3.9-1.7,3.9-3.9
			C195.6,66.8,193.8,65.1,191.6,65.1 M196.5,69c0,2.7-2.1,4.9-4.9,4.9c-2.7,0-4.9-2.1-4.9-4.9c0-2.7,2.1-4.9,4.9-4.9
			C194.4,64.1,196.5,66.2,196.5,69 M190.7,68.3h0.8c0.1,0,0.1,0,0.2,0c0.4,0,1,0,1.3-0.2c0.1-0.1,0.1-0.2,0.1-0.4
			c0-0.4-0.6-0.5-1.1-0.5h-1.3V68.3z M192.5,69.2l1.6,2.4H193l-1.6-2.4h-0.7v2.4h-1v-5.4h2.4c1.3,0,2,0.5,2,1.5
			C194.1,68.6,193.5,69.2,192.5,69.2 M120.8,99.8c0,0.2,0,0.4-0.1,0.5c-0.1,0.1-0.3,0.2-0.5,0.2c-0.2,0-3,0-4.4,0h-0.8h0
			c-0.5,0-0.6,0-0.7-0.7c-0.1-0.8-2.5-16.1-2.8-18.3c-1.7,3.5-3.1,6.2-4.2,8.4c-4,8-4.1,8.3-4.5,9c-0.4,0.7-0.7,1-1,1
			c-0.3,0-0.6-0.3-0.9-1c-0.6-1.2-7.4-15.5-8.4-17.5c-0.4,2.3-3.2,18.1-3.3,18.4c0,0,0,0.1,0,0.1c0,0.3-0.1,0.6-0.8,0.6
			c-0.2,0-0.5,0-0.9,0c-1.1,0-2.8,0-3.7,0c-0.3,0-0.6,0-0.7,0c-0.2,0-0.4,0-0.4-0.2c-0.1-0.1-0.1-0.3-0.1-0.6
			c0.5-2.8,2.8-14.7,4.7-24.2c1-5,1.8-9.2,2.1-10.9c0.2-1,0.4-1.4,0.8-1.5c0.3,0,0.7,0.4,1.2,1.4c1.2,2.5,9.6,19.9,10.4,21.8
			c0.9-1.9,9.6-19.3,10.8-21.7c0.5-1,0.9-1.4,1.2-1.4c0,0,0,0,0.1,0c0.3,0,0.5,0.5,0.7,1.4C114.9,66.1,120.8,99.5,120.8,99.8"/>
		<path class="st0" d="M39.5,98l-22.9-8.2c-0.1,0-0.1,0-0.1-0.1L16,89.6c-0.5-0.2-1.1,0.1-1.3,0.7l-2.1,5.9
			c-0.2,0.6,0.1,1.2,0.6,1.4l23.4,8.4c0.5,0.2,1.1-0.1,1.3-0.7l2.1-5.9C40.2,98.8,40,98.3,39.5,98"/>
		<path class="st0" d="M24.3,104.2L12.5,100c0,0-0.1,0-0.1,0c-0.8,2.3-2,4.7-3.4,6.9c-2.5,3.9-5.5,7.1-8.9,9.5l6,3.8l1.5-1.2
			L7,120.6l4.3,2.7c2.7-2.4,5.4-5.3,7.7-8.8l0.4-0.6c2-3.1,3.6-6.4,4.8-9.6L24.3,104.2z"/>
		<path class="st0" d="M24.7,115.6c1.7-3.3,2.8-6.7,3.5-10.1l-3.2-1.1c-0.7,3.2-1.8,6.6-3.3,9.9l-0.3,0.7c-1.9,3.8-4.1,7.2-6.6,10
			l2.5,1.2c2.7-2.7,5.2-6,7.2-9.8L24.7,115.6z"/>
		<path class="st0" d="M19,126.3l6.3,2.8c2.9-2.7,5.4-6.2,7.3-10.2l0.3-0.7c1.5-3.3,2.4-6.7,2.7-10.1l-6.4-2.3
			c-0.5,3.1-1.5,6.2-2.8,9.3l-0.3,0.8C24.1,119.9,21.7,123.4,19,126.3"/>
		<path class="st0" d="M31.5,92.2l12.3-34.7c0.6-1.6-0.3-3.3-1.8-3.8c-1.6-0.6-3.3,0.3-3.8,1.8L25.8,90.2L31.5,92.2z"/>
		<path class="st0" d="M143.5,171c0,0.2,0,0.4-0.1,0.5c-0.1,0.1-0.3,0.1-0.5,0.1c-0.2,0-2.7,0-4,0l-0.7,0h0c-0.4,0-0.6,0-0.6-0.6
			c-0.1-0.7-2.3-14.5-2.6-16.5c-1.6,3.2-2.8,5.6-3.8,7.6c-3.6,7.3-3.7,7.5-4.1,8.2c-0.4,0.7-0.6,0.9-0.9,0.9c-0.3,0-0.5-0.3-0.9-0.9
			c-0.6-1.1-6.7-14-7.6-15.8c-0.4,2.1-2.9,16.4-2.9,16.6c0,0,0,0.1,0,0.1c0,0.2-0.1,0.5-0.7,0.5c-0.1,0-0.4,0-0.8,0
			c-1,0-2.5,0-3.3,0c-0.3,0-0.5,0-0.6,0c-0.2,0-0.3,0-0.4-0.1c-0.1-0.1-0.1-0.3-0.1-0.5c0.5-2.5,2.6-13.2,4.2-21.8
			c0.9-4.5,1.6-8.3,1.9-9.9c0.2-0.9,0.4-1.3,0.7-1.3c0.3,0,0.7,0.4,1.1,1.3c1.1,2.3,8.6,18,9.4,19.7c0.8-1.7,8.6-17.4,9.7-19.6
			c0.5-0.9,0.8-1.3,1.1-1.3c0,0,0,0,0,0c0.3,0,0.5,0.4,0.6,1.2C138.1,140.6,143.4,170.8,143.5,171"/>
	</g>
	<g>
		<g>
			<g>
				<path class="st0" d="M181.2,143.6c-0.7-1.4-1.8-2.5-3.3-3.5c-0.5-0.4-1.1-0.6-1.6-0.9c-0.5-0.2-1.1-0.4-1.8-0.5
					c-0.7-0.1-1.5-0.2-2.4-0.3c-0.9,0-2-0.1-3.3-0.1h-8c-0.3,0-0.6,0.3-0.6,0.6v31.8c0,0.3,0.3,0.6,0.6,0.6h4.8
					c0.3,0,0.6-0.3,0.6-0.6v-11.7c0-0.3,0.3-0.6,0.6-0.6h2c1.3,0,2.5,0,3.4-0.1c0.9,0,1.6-0.1,2.3-0.2c0.6-0.1,1.2-0.3,1.6-0.4
					c0.5-0.2,1-0.4,1.4-0.7c1.5-0.9,2.6-2.1,3.5-3.7c0.9-1.6,1.3-3.3,1.3-5.2C182.3,146.5,181.9,145,181.2,143.6z M175.4,151.1
					c-0.6,0.8-1.4,1.4-2.3,1.7c-1,0.3-2.5,0.5-4.5,0.5h-1.8c-0.3,0-0.6-0.3-0.6-0.6v-8.6c0-0.3,0.3-0.6,0.6-0.6h2.1
					c0.7,0,1.2,0,1.6,0c0.4,0,0.8,0,1,0c0.3,0,0.6,0.1,0.8,0.1c0.2,0.1,0.5,0.1,0.7,0.2c1,0.3,1.8,0.9,2.4,1.6
					c0.6,0.8,0.9,1.7,0.9,2.7C176.3,149.3,176,150.3,175.4,151.1z"/>
			</g>
			<g>
				<g>
					<path class="st0" d="M223.2,138.3h-5c-0.3,0-0.6,0.3-0.6,0.6v20.6c0,4.8-2.1,7.2-6.3,7.2c-2.3,0-4-0.8-5.2-2.5
						c-0.5-0.6-0.8-1.3-0.9-1.9c-0.1-0.6-0.2-1.6-0.2-2.9v-20.6c0-0.3-0.3-0.6-0.6-0.6h-5c-0.3,0-0.6,0.3-0.6,0.6v20.6
						c0,3.3,0.6,5.8,1.9,7.5c1.1,1.6,2.6,2.8,4.5,3.8c1.9,0.9,4,1.4,6.1,1.4c1.9,0,3.8-0.4,5.5-1.1c1.7-0.7,3.1-1.8,4.3-3.2
						c0.9-1,1.6-2.2,2-3.5c0.4-1.4,0.6-3,0.6-4.9v-20.6C223.8,138.6,223.6,138.3,223.2,138.3z"/>
				</g>
			</g>
			<path class="st0" d="M262.4,146.7c-1.7,0-5,0-5,0c-0.3,0-0.5-0.2-0.5-0.4c-0.2-1-0.5-1.7-1.2-2.3c-0.7-0.7-1.7-1.1-2.8-1.1
				c-1.2,0-2.2,0.3-3,1c-0.7,0.7-1.1,1.6-1.1,2.7c0,0.6,0.1,1.1,0.3,1.5c0.2,0.5,0.5,0.9,1,1.3c0.5,0.4,1.1,0.7,1.9,1
				c0.8,0.3,1.8,0.7,3,1.1c3.2,1.1,5.5,2.4,6.9,3.9c1.4,1.5,2.1,3.5,2.1,6c0,1.5-0.3,2.8-0.9,4.1c-0.6,1.3-1.4,2.4-2.4,3.4
				c-1,1-2.2,1.7-3.6,2.3c-1.4,0.5-2.9,0.8-4.4,0.8c-1.5,0-3-0.3-4.3-0.8c-1.3-0.5-2.5-1.2-3.5-2.1c-1-0.9-1.8-1.9-2.4-3.2
				c-0.5-0.9-0.8-1.9-0.9-3c0-0.1,0-0.3,0.1-0.5c0.1-0.1,0.2-0.2,0.4-0.2h0.2h5c0.1,0,0.2,0,0.3,0.1c0.2,0.1,0.2,0.3,0.2,0.4
				c0.2,1.1,0.7,2,1.4,2.7c0.9,0.9,2.1,1.3,3.7,1.3c1.4,0,2.7-0.4,3.6-1.3c1-0.8,1.5-1.9,1.5-3.2c0-1.3-0.4-2.3-1.1-3.2
				c-0.7-0.8-2-1.5-3.8-2.1c-1.3-0.4-2.3-0.8-3.1-1.1c-0.8-0.3-1.5-0.6-2-0.8c-0.5-0.2-0.9-0.5-1.2-0.7c-0.3-0.2-0.7-0.5-1.1-0.9
				c-0.9-0.8-1.6-1.9-2.1-3c-0.5-1.2-0.7-2.4-0.7-3.7c0-1.2,0.3-2.4,0.8-3.5c0.5-1.1,1.3-2.1,2.2-2.9c0.9-0.8,2-1.5,3.2-2
				c1.2-0.5,2.5-0.7,3.9-0.7c1.4,0,2.7,0.2,3.9,0.7c1.2,0.5,2.3,1.1,3.1,2c0.9,0.8,1.6,1.8,2.2,2.9c0.4,0.8,0.7,1.6,0.8,2.5
				c0,0.2,0.1,0.5-0.1,0.6C262.8,146.7,262.7,146.7,262.4,146.7z"/>
		</g>
	</g>
	<path class="st0" d="M95.4,171l-14.2-32.1c-0.1-0.3-0.4-0.5-0.8-0.5h-3.6c-0.3,0-0.6,0.2-0.8,0.5L62,171c0,0.1,0,0.2,0,0.3
		s0.1,0.1,0.2,0.1H68c0.2,0,0.4-0.1,0.5-0.3l3.6-8c0.1-0.2,0.3-0.3,0.5-0.3h12.2c0.2,0,0.4,0.1,0.5,0.3l3.5,8
		c0.1,0.2,0.3,0.3,0.5,0.3h5.8c0.1,0,0.2,0,0.2-0.1S95.5,171.1,95.4,171z M82.5,157.6h-7.7c-0.2,0-0.3-0.2-0.3-0.4l3.9-10.6
		c0.1-0.2,0.4-0.2,0.5,0l3.9,10.6C82.9,157.4,82.7,157.6,82.5,157.6z"/>
	<path class="st0" d="M20.7,157.3C20.7,157.3,20.7,157.3,20.7,157.3c0.6,2.3,1.7,4.1,3.2,5.6c1.1,1,2.3,1.9,3.6,2.5
		c1.4,0.6,2.8,0.9,4.4,0.9c1.7,0,3.1-0.3,4.5-0.9c1.3-0.6,2.6-1.6,4.1-3c0.1-0.1,0.2-0.2,0.4-0.2h6.3c0.4,0,0.7,0.4,0.5,0.8
		c-0.6,1.1-1.3,2.2-2.2,3.2c-1.1,1.2-2.3,2.2-3.7,3.1s-2.9,1.5-4.5,2c-1.6,0.5-3.2,0.7-4.9,0.7c-2.5,0-4.8-0.5-7-1.4
		c-2.2-0.9-4.1-2.1-5.8-3.7c-1.7-1.5-3-3.3-3.9-5.4c-1-2-1.4-4.2-1.4-6.6c0-2.4,0.5-4.6,1.4-6.6c0.9-2.1,2.2-3.9,3.8-5.4
		c1.6-1.6,3.5-2.8,5.6-3.7c2.2-0.9,4.5-1.4,6.9-1.4c3.7,0,6.9,0.9,9.8,2.7c2.7,1.6,4.7,3.8,6.1,6.6c0.2,0.4-0.1,0.8-0.5,0.8l-6.2,0
		c-0.2,0-0.3-0.1-0.4-0.2c-2.6-2.8-5.6-4.1-8.9-4.1c-1.6,0-3,0.3-4.4,0.9c-1.4,0.6-2.6,1.4-3.6,2.5c-1,1-1.9,2.2-2.5,3.6
		C20.5,152.6,20.3,154.9,20.7,157.3z"/>
</g>
</svg>
